<svg xmlns="http://www.w3.org/2000/svg" xmlns:xlink="http://www.w3.org/1999/xlink" width="200" zoomAndPan="magnify" viewBox="0 0 150 112.499997" height="150" preserveAspectRatio="xMidYMid meet" version="1.0"><defs><clipPath id="d3809ca491"><path d="M 3.496094 9.8125 L 146.859375 9.8125 L 146.859375 100 L 3.496094 100 Z M 3.496094 9.8125 " clip-rule="nonzero"/></clipPath><clipPath id="7f64357188"><path d="M 39 26 L 113 26 L 113 100.910156 L 39 100.910156 Z M 39 26 " clip-rule="nonzero"/></clipPath><clipPath id="f5d534f421"><path d="M 38 26 L 114 26 L 114 100.910156 L 38 100.910156 Z M 38 26 " clip-rule="nonzero"/></clipPath></defs><path fill="#ffffff" d="M 65.375 75.628906 C 62.039062 72.652344 59.9375 68.316406 59.9375 63.496094 C 59.9375 63.085938 59.953125 62.679688 59.980469 62.28125 C 60.015625 62.234375 60.050781 62.191406 60.082031 62.148438 C 60.210938 61.984375 60.335938 61.824219 60.46875 61.667969 C 60.519531 61.601562 60.570312 61.535156 60.625 61.472656 C 60.742188 61.332031 60.863281 61.1875 60.980469 61.050781 C 61.054688 60.964844 61.121094 60.882812 61.195312 60.800781 C 61.296875 60.683594 61.40625 60.5625 61.511719 60.445312 C 61.625 60.324219 61.738281 60.199219 61.851562 60.078125 C 61.917969 60.007812 61.984375 59.933594 62.050781 59.867188 C 64.121094 57.695312 66.214844 56.199219 68.226562 55.1875 C 66.59375 57.136719 65.625 59.136719 65.074219 60.621094 C 63.382812 65.179688 63.488281 70.210938 65.375 75.628906 " fill-opacity="1" fill-rule="nonzero"/><path fill="#ffffff" d="M 60.480469 59.9375 C 60.414062 60.015625 60.34375 60.09375 60.277344 60.171875 C 61.316406 55.164062 64.664062 50.996094 69.15625 48.832031 C 69.226562 48.84375 69.296875 48.851562 69.363281 48.859375 C 69.449219 48.871094 69.535156 48.886719 69.621094 48.898438 C 73.78125 49.519531 76.960938 50.820312 79.394531 52.410156 C 78.367188 52.234375 77.316406 52.144531 76.25 52.144531 C 74.527344 52.144531 72.519531 52.382812 70.363281 53.101562 L 70.347656 53.105469 C 70.28125 53.125 70.21875 53.148438 70.15625 53.171875 L 70.097656 53.191406 C 66.617188 54.402344 63.421875 56.636719 60.5625 59.847656 L 60.480469 59.9375 " fill-opacity="1" fill-rule="nonzero"/><path fill="#ffffff" d="M 81.347656 78.945312 C 79.738281 79.480469 78.015625 79.765625 76.230469 79.765625 C 72.832031 79.765625 69.675781 78.726562 67.066406 76.949219 C 67.035156 76.878906 67.003906 76.808594 66.980469 76.738281 C 66.933594 76.625 66.886719 76.511719 66.84375 76.398438 C 65.332031 72.53125 64.878906 69.164062 65.042969 66.289062 C 65.914062 68.664062 67.15625 70.488281 68.167969 71.703125 C 71.273438 75.449219 75.695312 77.875 81.347656 78.945312 " fill-opacity="1" fill-rule="nonzero"/><path fill="#ffffff" d="M 71.140625 48.035156 C 72.742188 47.507812 74.449219 47.222656 76.230469 47.222656 C 79.628906 47.222656 82.789062 48.265625 85.402344 50.046875 C 85.425781 50.101562 85.449219 50.160156 85.46875 50.214844 C 85.519531 50.332031 85.5625 50.449219 85.609375 50.5625 C 85.816406 51.097656 86.007812 51.625 86.175781 52.140625 L 86.195312 52.183594 C 87.242188 55.386719 87.554688 58.21875 87.414062 60.6875 C 86.542969 58.308594 85.300781 56.488281 84.292969 55.273438 C 81.1875 51.53125 76.773438 49.109375 71.140625 48.035156 " fill-opacity="1" fill-rule="nonzero"/><path fill="#ffffff" d="M 91.964844 67.050781 C 92.039062 66.96875 92.109375 66.882812 92.183594 66.800781 C 91.148438 71.808594 87.808594 75.976562 83.320312 78.148438 C 83.25 78.136719 83.183594 78.128906 83.117188 78.117188 C 82.992188 78.101562 82.871094 78.082031 82.746094 78.0625 C 82.179688 77.976562 81.625 77.878906 81.09375 77.769531 L 81.050781 77.757812 C 77.746094 77.066406 75.132812 75.917969 73.0625 74.5625 C 74.089844 74.742188 75.140625 74.832031 76.207031 74.832031 C 77.933594 74.832031 79.945312 74.589844 82.101562 73.871094 L 82.128906 73.863281 C 82.191406 73.84375 82.253906 73.820312 82.320312 73.796875 L 82.339844 73.789062 C 85.835938 72.578125 89.046875 70.335938 91.914062 67.105469 L 91.964844 67.050781 " fill-opacity="1" fill-rule="nonzero"/><path fill="#ffffff" d="M 92.519531 63.496094 C 92.519531 63.898438 92.503906 64.296875 92.476562 64.695312 C 92.4375 64.742188 92.402344 64.789062 92.363281 64.839844 C 92.242188 64.992188 92.121094 65.144531 91.996094 65.296875 C 91.9375 65.375 91.878906 65.449219 91.8125 65.523438 C 91.707031 65.65625 91.59375 65.789062 91.480469 65.917969 C 91.398438 66.015625 91.316406 66.113281 91.230469 66.210938 C 91.140625 66.3125 91.046875 66.417969 90.957031 66.519531 C 90.816406 66.671875 90.679688 66.824219 90.539062 66.96875 C 90.5 67.015625 90.457031 67.058594 90.417969 67.101562 C 88.34375 69.273438 86.246094 70.773438 84.230469 71.785156 C 85.867188 69.835938 86.832031 67.839844 87.382812 66.351562 C 89.070312 61.800781 88.96875 56.773438 87.085938 51.367188 C 90.421875 54.34375 92.519531 58.675781 92.519531 63.496094 " fill-opacity="1" fill-rule="nonzero"/><g clip-path="url(#d3809ca491)"><path fill="#ffffff" d="M 145.191406 99.441406 C 145.191406 99.441406 145.15625 98.292969 145.089844 96.140625 C 145.03125 93.984375 144.917969 90.828125 144.824219 86.808594 C 144.730469 82.789062 144.621094 77.910156 144.488281 72.3125 C 144.371094 66.714844 144.238281 60.398438 144.136719 53.507812 C 144.023438 46.621094 143.902344 39.15625 143.820312 31.261719 L 143.808594 30.148438 L 143.792969 29.847656 L 143.769531 29.472656 C 143.757812 29.347656 143.734375 29.289062 143.71875 29.191406 L 143.675781 28.929688 C 143.660156 28.839844 143.625 28.738281 143.601562 28.644531 C 143.394531 27.863281 143.019531 27.128906 142.507812 26.492188 C 141.5 25.207031 139.917969 24.394531 138.269531 24.328125 L 137.960938 24.316406 L 137.554688 24.308594 L 136.769531 24.300781 C 136.246094 24.292969 135.722656 24.285156 135.195312 24.277344 C 134.144531 24.253906 133.089844 24.230469 132.027344 24.207031 C 129.90625 24.148438 127.761719 24.082031 125.597656 23.996094 C 121.273438 23.820312 116.878906 23.605469 112.410156 23.230469 C 110.175781 23.027344 107.929688 22.8125 105.632812 22.441406 C 104.464844 22.21875 103.320312 22.058594 102.039062 21.554688 C 100.875 21.121094 99.792969 20.59375 98.722656 20 C 97.660156 19.402344 96.625 18.722656 95.613281 17.824219 C 95.117188 17.359375 94.597656 16.808594 94.171875 16.0625 L 93.371094 14.585938 C 93.128906 14.148438 92.882812 13.820312 92.699219 13.644531 C 92.503906 13.492188 92.453125 13.457031 92.234375 13.4375 L 92.148438 13.433594 C 92.125 13.425781 92.019531 13.429688 91.960938 13.429688 L 91.53125 13.429688 L 90.675781 13.433594 L 88.957031 13.4375 C 84.375 13.445312 79.777344 13.460938 75.179688 13.46875 C 70.578125 13.460938 65.980469 13.449219 61.398438 13.4375 L 58.824219 13.433594 L 58.285156 13.433594 C 58.152344 13.433594 58.351562 13.425781 58.289062 13.429688 L 58.078125 13.441406 C 57.933594 13.457031 57.839844 13.492188 57.65625 13.644531 C 57.472656 13.820312 57.226562 14.148438 56.984375 14.585938 L 56.179688 16.070312 C 55.863281 16.664062 55.207031 17.40625 54.742188 17.824219 C 53.730469 18.726562 52.695312 19.402344 51.632812 20 C 50.5625 20.597656 49.480469 21.121094 48.316406 21.558594 C 47.742188 21.773438 47.113281 21.976562 46.4375 22.113281 C 45.878906 22.222656 45.34375 22.339844 44.777344 22.4375 L 43.015625 22.699219 C 42.433594 22.78125 41.878906 22.832031 41.3125 22.902344 C 40.179688 23.042969 39.0625 23.125 37.941406 23.234375 C 33.476562 23.609375 29.082031 23.824219 24.757812 24 C 22.59375 24.085938 20.453125 24.152344 18.328125 24.210938 C 17.269531 24.234375 16.210938 24.261719 15.15625 24.285156 C 14.632812 24.292969 14.109375 24.300781 13.585938 24.304688 L 12.800781 24.316406 L 12.453125 24.320312 L 12.066406 24.335938 C 11.769531 24.335938 11.628906 24.378906 11.449219 24.398438 C 11.28125 24.410156 11.066406 24.480469 10.871094 24.523438 C 10.472656 24.625 10.09375 24.78125 9.726562 24.957031 C 9 25.324219 8.359375 25.863281 7.847656 26.496094 C 7.339844 27.128906 6.96875 27.867188 6.757812 28.644531 C 6.699219 28.835938 6.664062 29.035156 6.632812 29.234375 C 6.589844 29.429688 6.582031 29.632812 6.570312 29.835938 C 6.5625 29.941406 6.550781 30.023438 6.550781 30.148438 L 6.546875 30.519531 L 6.535156 31.261719 C 6.488281 35.207031 6.441406 39.046875 6.394531 42.761719 C 6.335938 46.476562 6.277344 50.0625 6.21875 53.507812 C 6.121094 60.398438 5.988281 66.714844 5.867188 72.3125 C 5.738281 77.910156 5.625 82.789062 5.53125 86.808594 C 5.4375 90.828125 5.324219 93.984375 5.265625 96.140625 C 5.199219 98.292969 5.164062 99.441406 5.164062 99.441406 C 5.164062 99.441406 5.128906 98.292969 5.066406 96.140625 C 5.007812 93.984375 4.890625 90.828125 4.800781 86.808594 C 4.703125 82.789062 4.589844 77.910156 4.460938 72.3125 C 4.339844 66.714844 4.207031 60.398438 4.109375 53.507812 C 4.050781 50.0625 3.996094 46.476562 3.933594 42.761719 C 3.890625 39.046875 3.839844 35.207031 3.792969 31.261719 L 3.78125 30.519531 L 3.777344 30.148438 C 3.777344 30.023438 3.785156 29.859375 3.792969 29.71875 C 3.800781 29.421875 3.8125 29.128906 3.863281 28.832031 C 3.902344 28.539062 3.949219 28.246094 4.027344 27.957031 C 4.308594 26.796875 4.835938 25.6875 5.574219 24.722656 C 7.039062 22.78125 9.367188 21.480469 11.910156 21.3125 C 13.992188 21.230469 16.097656 21.148438 18.222656 21.066406 C 20.332031 20.980469 22.460938 20.882812 24.605469 20.769531 C 28.894531 20.535156 33.253906 20.261719 37.625 19.828125 C 38.714844 19.707031 39.816406 19.609375 40.894531 19.460938 C 41.433594 19.386719 41.992188 19.324219 42.515625 19.242188 L 44.078125 18.992188 C 44.613281 18.898438 45.175781 18.773438 45.722656 18.664062 C 46.144531 18.574219 46.59375 18.4375 47.074219 18.25 C 48.019531 17.894531 48.976562 17.425781 49.878906 16.917969 C 50.78125 16.40625 51.644531 15.816406 52.328125 15.203125 C 52.683594 14.84375 52.808594 14.742188 53.054688 14.339844 C 53.304688 13.890625 53.554688 13.378906 53.867188 12.824219 C 54.183594 12.269531 54.570312 11.632812 55.210938 11.019531 C 55.863281 10.402344 56.851562 9.902344 57.855469 9.855469 L 58.070312 9.839844 L 58.285156 9.835938 L 58.824219 9.835938 L 59.683594 9.832031 L 61.398438 9.828125 C 65.980469 9.816406 70.578125 9.808594 75.179688 9.796875 C 79.777344 9.808594 84.375 9.820312 88.957031 9.832031 L 90.675781 9.835938 L 91.960938 9.835938 C 92.039062 9.835938 92.078125 9.835938 92.195312 9.839844 L 92.542969 9.859375 C 93 9.894531 93.5 10.015625 93.953125 10.222656 C 94.417969 10.425781 94.804688 10.71875 95.140625 11.019531 C 95.78125 11.632812 96.171875 12.269531 96.484375 12.824219 C 96.640625 13.101562 96.785156 13.371094 96.917969 13.621094 L 97.304688 14.347656 C 97.441406 14.59375 97.695312 14.890625 98.027344 15.203125 C 98.707031 15.820312 99.570312 16.410156 100.476562 16.917969 C 101.378906 17.429688 102.335938 17.894531 103.28125 18.253906 C 104.09375 18.601562 105.195312 18.777344 106.226562 18.988281 C 108.351562 19.359375 110.546875 19.605469 112.726562 19.832031 C 117.097656 20.265625 121.460938 20.539062 125.746094 20.773438 C 127.894531 20.886719 130.019531 20.984375 132.132812 21.070312 C 134.261719 21.15625 136.371094 21.238281 138.460938 21.320312 C 139.710938 21.40625 140.929688 21.765625 142.011719 22.355469 C 143.101562 22.941406 144.039062 23.765625 144.777344 24.726562 C 145.511719 25.6875 146.039062 26.796875 146.320312 27.957031 C 146.355469 28.105469 146.394531 28.242188 146.421875 28.398438 L 146.492188 28.875 C 146.507812 29.027344 146.539062 29.210938 146.542969 29.332031 L 146.566406 29.894531 L 146.570312 29.984375 L 146.570312 30.148438 L 146.558594 31.261719 C 146.476562 39.15625 146.355469 46.621094 146.242188 53.507812 C 146.140625 60.398438 146.007812 66.714844 145.890625 72.3125 C 145.757812 77.910156 145.644531 82.789062 145.554688 86.808594 C 145.460938 90.828125 145.347656 93.984375 145.289062 96.140625 C 145.222656 98.292969 145.191406 99.441406 145.191406 99.441406 " fill-opacity="1" fill-rule="nonzero"/></g><g clip-path="url(#7f64357188)"><path fill="#ffffff" d="M 76.230469 26.796875 C 55.96875 26.796875 39.488281 43.261719 39.488281 63.496094 C 39.488281 83.730469 55.96875 100.191406 76.230469 100.191406 C 96.488281 100.191406 112.96875 83.730469 112.96875 63.496094 C 112.96875 43.261719 96.488281 26.796875 76.230469 26.796875 Z M 76.230469 97.558594 C 57.421875 97.558594 42.121094 82.277344 42.121094 63.496094 C 42.121094 44.710938 57.421875 29.429688 76.230469 29.429688 C 95.035156 29.429688 110.335938 44.710938 110.335938 63.496094 C 110.335938 82.277344 95.035156 97.558594 76.230469 97.558594 " fill-opacity="1" fill-rule="nonzero"/></g><g clip-path="url(#f5d534f421)"><path fill="#ffffff" d="M 73.882812 26.183594 C 73.5 26.207031 73.210938 26.53125 73.234375 26.914062 C 73.257812 27.289062 73.585938 27.578125 73.964844 27.554688 C 74.347656 27.53125 74.636719 27.207031 74.613281 26.828125 C 74.585938 26.445312 74.261719 26.160156 73.882812 26.183594 Z M 71.542969 26.402344 C 71.164062 26.449219 70.894531 26.792969 70.945312 27.171875 C 70.992188 27.546875 71.335938 27.816406 71.710938 27.769531 C 72.089844 27.71875 72.359375 27.375 72.3125 27 C 72.261719 26.621094 71.917969 26.351562 71.542969 26.402344 Z M 69.21875 26.765625 C 68.847656 26.835938 68.601562 27.199219 68.671875 27.574219 C 68.742188 27.945312 69.101562 28.191406 69.476562 28.121094 C 69.851562 28.046875 70.097656 27.6875 70.027344 27.3125 C 69.953125 26.941406 69.59375 26.695312 69.21875 26.765625 Z M 66.925781 27.277344 C 66.554688 27.371094 66.332031 27.75 66.429688 28.117188 C 66.523438 28.484375 66.898438 28.707031 67.269531 28.613281 C 67.636719 28.519531 67.859375 28.144531 67.765625 27.773438 C 67.667969 27.40625 67.292969 27.183594 66.925781 27.277344 Z M 64.667969 27.933594 C 64.304688 28.050781 64.105469 28.441406 64.226562 28.800781 C 64.34375 29.164062 64.734375 29.359375 65.09375 29.242188 C 65.457031 29.125 65.65625 28.738281 65.539062 28.375 C 65.417969 28.015625 65.03125 27.816406 64.667969 27.933594 Z M 62.453125 28.730469 C 62.097656 28.871094 61.925781 29.273438 62.066406 29.625 C 62.207031 29.980469 62.609375 30.152344 62.964844 30.011719 C 63.316406 29.871094 63.488281 29.472656 63.347656 29.117188 C 63.207031 28.761719 62.808594 28.589844 62.453125 28.730469 Z M 60.292969 29.667969 C 59.949219 29.832031 59.800781 30.242188 59.964844 30.585938 C 60.128906 30.929688 60.539062 31.074219 60.882812 30.914062 C 61.226562 30.75 61.375 30.339844 61.210938 29.996094 C 61.050781 29.652344 60.640625 29.507812 60.292969 29.667969 Z M 58.199219 30.738281 C 57.867188 30.921875 57.746094 31.339844 57.929688 31.675781 C 58.113281 32.007812 58.53125 32.128906 58.867188 31.945312 L 58.867188 31.941406 C 59.199219 31.761719 59.320312 31.34375 59.136719 31.007812 C 58.953125 30.675781 58.53125 30.554688 58.199219 30.738281 Z M 56.175781 31.9375 C 55.855469 32.140625 55.761719 32.566406 55.964844 32.886719 C 56.171875 33.210938 56.597656 33.304688 56.917969 33.097656 C 57.238281 32.894531 57.332031 32.46875 57.128906 32.148438 C 56.925781 31.828125 56.5 31.734375 56.175781 31.9375 Z M 54.234375 33.261719 C 53.925781 33.484375 53.859375 33.914062 54.082031 34.222656 C 54.308594 34.53125 54.738281 34.597656 55.046875 34.375 C 55.355469 34.148438 55.421875 33.71875 55.199219 33.414062 C 54.972656 33.105469 54.542969 33.035156 54.234375 33.261719 Z M 52.378906 34.703125 C 52.085938 34.945312 52.042969 35.378906 52.289062 35.671875 C 52.53125 35.964844 52.964844 36.003906 53.257812 35.761719 C 53.550781 35.519531 53.589844 35.085938 53.347656 34.792969 C 53.105469 34.5 52.671875 34.460938 52.378906 34.703125 Z M 50.617188 36.253906 C 50.339844 36.515625 50.324219 36.949219 50.585938 37.230469 C 50.847656 37.507812 51.285156 37.519531 51.558594 37.257812 C 51.839844 37 51.851562 36.5625 51.589844 36.285156 C 51.328125 36.007812 50.894531 35.996094 50.617188 36.253906 Z M 48.953125 37.914062 C 48.695312 38.191406 48.707031 38.628906 48.984375 38.886719 C 49.261719 39.148438 49.699219 39.136719 49.960938 38.859375 C 50.21875 38.582031 50.207031 38.144531 49.929688 37.886719 C 49.652344 37.625 49.214844 37.636719 48.953125 37.914062 Z M 47.398438 39.675781 C 47.15625 39.96875 47.195312 40.402344 47.492188 40.644531 C 47.785156 40.886719 48.21875 40.847656 48.460938 40.554688 C 48.703125 40.261719 48.664062 39.824219 48.371094 39.582031 C 48.074219 39.339844 47.640625 39.382812 47.398438 39.675781 Z M 45.957031 41.527344 C 45.734375 41.835938 45.800781 42.265625 46.109375 42.488281 C 46.417969 42.714844 46.847656 42.644531 47.074219 42.339844 C 47.296875 42.03125 47.226562 41.601562 46.921875 41.375 C 46.613281 41.152344 46.179688 41.21875 45.957031 41.527344 Z M 44.632812 43.464844 C 44.429688 43.785156 44.523438 44.210938 44.84375 44.414062 C 45.167969 44.621094 45.59375 44.527344 45.796875 44.207031 C 46.003906 43.886719 45.90625 43.460938 45.585938 43.253906 C 45.265625 43.050781 44.839844 43.144531 44.632812 43.464844 Z M 43.4375 45.484375 C 43.25 45.816406 43.371094 46.234375 43.707031 46.417969 C 44.039062 46.601562 44.457031 46.480469 44.640625 46.148438 C 44.824219 45.816406 44.707031 45.398438 44.371094 45.210938 C 44.039062 45.027344 43.617188 45.148438 43.4375 45.484375 Z M 42.367188 47.570312 C 42.203125 47.914062 42.347656 48.324219 42.695312 48.488281 C 43.039062 48.648438 43.449219 48.503906 43.613281 48.160156 C 43.773438 47.816406 43.628906 47.402344 43.28125 47.242188 C 42.941406 47.078125 42.527344 47.226562 42.367188 47.570312 Z M 41.429688 49.71875 C 41.289062 50.074219 41.460938 50.472656 41.816406 50.613281 C 42.167969 50.753906 42.570312 50.582031 42.710938 50.230469 C 42.851562 49.875 42.679688 49.476562 42.324219 49.332031 C 41.96875 49.195312 41.570312 49.367188 41.429688 49.71875 Z M 40.628906 51.929688 C 40.511719 52.289062 40.710938 52.679688 41.074219 52.796875 C 41.433594 52.914062 41.824219 52.714844 41.941406 52.355469 C 42.058594 51.992188 41.863281 51.605469 41.5 51.488281 C 41.140625 51.371094 40.75 51.566406 40.628906 51.929688 Z M 39.972656 54.179688 C 39.878906 54.550781 40.101562 54.925781 40.46875 55.019531 C 40.835938 55.113281 41.214844 54.894531 41.308594 54.523438 C 41.402344 54.15625 41.183594 53.78125 40.8125 53.6875 C 40.445312 53.589844 40.070312 53.8125 39.972656 54.179688 Z M 39.460938 56.472656 C 39.386719 56.847656 39.632812 57.207031 40.007812 57.277344 C 40.382812 57.347656 40.742188 57.105469 40.8125 56.730469 C 40.886719 56.355469 40.640625 55.996094 40.265625 55.925781 C 39.894531 55.851562 39.53125 56.097656 39.460938 56.472656 Z M 39.09375 58.789062 C 39.046875 59.167969 39.3125 59.515625 39.691406 59.558594 C 40.070312 59.609375 40.414062 59.339844 40.460938 58.964844 C 40.507812 58.585938 40.242188 58.242188 39.863281 58.195312 C 39.484375 58.148438 39.140625 58.414062 39.09375 58.789062 Z M 38.871094 61.128906 C 38.847656 61.507812 39.136719 61.835938 39.515625 61.859375 C 39.894531 61.882812 40.226562 61.59375 40.25 61.214844 C 40.273438 60.832031 39.984375 60.507812 39.605469 60.484375 C 39.222656 60.460938 38.894531 60.746094 38.871094 61.128906 Z M 38.796875 63.472656 C 38.796875 63.855469 39.105469 64.164062 39.488281 64.164062 C 39.867188 64.164062 40.175781 63.855469 40.175781 63.472656 C 40.175781 63.09375 39.871094 62.785156 39.488281 62.785156 C 39.105469 62.785156 38.796875 63.09375 38.796875 63.472656 Z M 38.867188 65.820312 C 38.890625 66.199219 39.21875 66.488281 39.601562 66.464844 C 39.980469 66.441406 40.269531 66.113281 40.246094 65.734375 C 40.222656 65.355469 39.894531 65.066406 39.515625 65.089844 C 39.136719 65.113281 38.847656 65.441406 38.867188 65.820312 Z M 39.085938 68.15625 C 39.136719 68.535156 39.480469 68.800781 39.855469 68.753906 C 40.234375 68.707031 40.503906 68.363281 40.457031 67.984375 L 40.453125 67.984375 C 40.40625 67.609375 40.0625 67.339844 39.6875 67.386719 C 39.308594 67.433594 39.039062 67.777344 39.089844 68.15625 Z M 39.453125 70.476562 C 39.523438 70.847656 39.882812 71.09375 40.257812 71.023438 C 40.632812 70.953125 40.878906 70.59375 40.808594 70.21875 C 40.738281 69.84375 40.375 69.597656 40 69.671875 C 39.628906 69.742188 39.382812 70.101562 39.453125 70.472656 Z M 39.960938 72.765625 C 40.058594 73.136719 40.433594 73.359375 40.800781 73.261719 C 41.171875 73.167969 41.394531 72.792969 41.300781 72.425781 C 41.203125 72.054688 40.828125 71.832031 40.460938 71.929688 C 40.089844 72.023438 39.867188 72.398438 39.960938 72.765625 Z M 40.617188 75.019531 C 40.734375 75.382812 41.125 75.582031 41.488281 75.464844 C 41.847656 75.34375 42.046875 74.957031 41.929688 74.597656 C 41.8125 74.234375 41.421875 74.035156 41.058594 74.152344 C 40.699219 74.269531 40.5 74.660156 40.617188 75.019531 Z M 41.414062 77.234375 C 41.554688 77.585938 41.957031 77.757812 42.3125 77.621094 C 42.664062 77.480469 42.835938 77.078125 42.699219 76.726562 C 42.558594 76.375 42.15625 76.199219 41.804688 76.339844 C 41.449219 76.480469 41.277344 76.878906 41.414062 77.234375 Z M 42.351562 79.390625 C 42.515625 79.734375 42.925781 79.882812 43.269531 79.71875 C 43.617188 79.558594 43.761719 79.144531 43.597656 78.804688 C 43.4375 78.460938 43.027344 78.3125 42.679688 78.472656 C 42.335938 78.636719 42.191406 79.046875 42.351562 79.390625 Z M 43.421875 81.484375 C 43.605469 81.816406 44.027344 81.9375 44.359375 81.753906 C 44.691406 81.570312 44.816406 81.152344 44.628906 80.820312 C 44.445312 80.484375 44.027344 80.363281 43.695312 80.546875 C 43.359375 80.730469 43.238281 81.148438 43.421875 81.484375 Z M 44.621094 83.503906 C 44.824219 83.824219 45.253906 83.921875 45.574219 83.714844 C 45.894531 83.511719 45.988281 83.085938 45.785156 82.765625 C 45.582031 82.445312 45.15625 82.347656 44.835938 82.554688 C 44.511719 82.757812 44.417969 83.183594 44.621094 83.503906 Z M 45.945312 85.445312 C 46.171875 85.753906 46.601562 85.820312 46.910156 85.597656 C 47.21875 85.375 47.285156 84.941406 47.0625 84.632812 C 46.835938 84.328125 46.40625 84.257812 46.097656 84.484375 C 45.789062 84.707031 45.722656 85.136719 45.945312 85.445312 Z M 47.386719 87.300781 C 47.628906 87.59375 48.066406 87.632812 48.359375 87.390625 C 48.652344 87.148438 48.691406 86.714844 48.449219 86.421875 C 48.207031 86.128906 47.773438 86.085938 47.480469 86.332031 C 47.183594 86.574219 47.144531 87.007812 47.386719 87.300781 Z M 48.945312 89.0625 C 49.203125 89.339844 49.640625 89.351562 49.917969 89.089844 C 50.195312 88.832031 50.210938 88.394531 49.949219 88.117188 C 49.6875 87.839844 49.25 87.828125 48.972656 88.089844 C 48.695312 88.347656 48.683594 88.785156 48.945312 89.0625 Z M 50.605469 90.722656 C 50.882812 90.980469 51.316406 90.96875 51.578125 90.691406 C 51.839844 90.414062 51.824219 89.980469 51.550781 89.71875 C 51.269531 89.457031 50.835938 89.472656 50.574219 89.746094 C 50.3125 90.027344 50.328125 90.460938 50.601562 90.722656 Z M 52.363281 92.273438 C 52.65625 92.519531 53.089844 92.476562 53.335938 92.183594 C 53.578125 91.894531 53.539062 91.457031 53.246094 91.214844 C 52.953125 90.972656 52.515625 91.015625 52.273438 91.304688 C 52.03125 91.597656 52.070312 92.03125 52.363281 92.273438 Z M 54.21875 93.71875 C 54.527344 93.941406 54.957031 93.871094 55.183594 93.566406 C 55.40625 93.257812 55.339844 92.828125 55.03125 92.601562 C 54.722656 92.378906 54.292969 92.445312 54.070312 92.753906 C 53.84375 93.0625 53.910156 93.492188 54.21875 93.71875 Z M 56.160156 95.039062 C 56.480469 95.242188 56.90625 95.148438 57.109375 94.828125 C 57.316406 94.507812 57.222656 94.082031 56.902344 93.875 L 56.902344 93.878906 C 56.578125 93.671875 56.152344 93.765625 55.949219 94.089844 C 55.742188 94.410156 55.835938 94.835938 56.160156 95.039062 Z M 58.175781 96.238281 C 58.511719 96.421875 58.929688 96.300781 59.113281 95.96875 C 59.300781 95.632812 59.175781 95.214844 58.84375 95.03125 C 58.511719 94.847656 58.089844 94.96875 57.90625 95.300781 C 57.722656 95.632812 57.84375 96.054688 58.175781 96.238281 Z M 60.269531 97.308594 C 60.609375 97.46875 61.023438 97.320312 61.183594 96.980469 C 61.347656 96.636719 61.203125 96.222656 60.855469 96.0625 C 60.511719 95.898438 60.101562 96.046875 59.9375 96.390625 C 59.777344 96.734375 59.921875 97.144531 60.269531 97.308594 Z M 62.417969 98.242188 C 62.773438 98.382812 63.171875 98.210938 63.316406 97.855469 C 63.457031 97.503906 63.28125 97.101562 62.929688 96.964844 C 62.574219 96.820312 62.175781 96.992188 62.035156 97.347656 C 61.894531 97.699219 62.066406 98.101562 62.417969 98.242188 Z M 64.628906 99.042969 C 64.992188 99.160156 65.378906 98.964844 65.5 98.601562 C 65.617188 98.238281 65.417969 97.851562 65.058594 97.734375 C 64.695312 97.613281 64.304688 97.8125 64.1875 98.171875 C 64.070312 98.535156 64.265625 98.921875 64.628906 99.042969 Z M 66.886719 99.699219 C 67.253906 99.796875 67.628906 99.574219 67.726562 99.203125 C 67.820312 98.835938 67.597656 98.460938 67.230469 98.367188 C 66.863281 98.269531 66.484375 98.492188 66.390625 98.859375 C 66.292969 99.226562 66.515625 99.605469 66.886719 99.699219 Z M 69.179688 100.214844 C 69.554688 100.285156 69.914062 100.039062 69.988281 99.664062 C 70.058594 99.292969 69.8125 98.933594 69.4375 98.859375 C 69.066406 98.789062 68.703125 99.035156 68.628906 99.40625 C 68.5625 99.78125 68.804688 100.140625 69.179688 100.214844 Z M 71.5 100.582031 C 71.878906 100.628906 72.222656 100.363281 72.269531 99.984375 C 72.320312 99.605469 72.050781 99.261719 71.675781 99.214844 C 71.296875 99.167969 70.949219 99.433594 70.902344 99.8125 C 70.855469 100.191406 71.125 100.535156 71.5 100.582031 Z M 73.839844 100.804688 C 74.222656 100.828125 74.546875 100.539062 74.570312 100.160156 C 74.597656 99.777344 74.308594 99.453125 73.925781 99.429688 C 73.546875 99.402344 73.21875 99.691406 73.195312 100.074219 C 73.171875 100.453125 73.460938 100.78125 73.839844 100.804688 Z M 76.1875 100.878906 C 76.570312 100.878906 76.878906 100.570312 76.878906 100.191406 C 76.878906 99.8125 76.570312 99.5 76.191406 99.5 C 75.808594 99.5 75.5 99.808594 75.5 100.191406 C 75.5 100.570312 75.808594 100.878906 76.1875 100.878906 Z M 78.539062 100.808594 C 78.917969 100.785156 79.207031 100.457031 79.183594 100.078125 C 79.160156 99.699219 78.832031 99.410156 78.453125 99.433594 C 78.074219 99.457031 77.785156 99.78125 77.808594 100.164062 C 77.832031 100.542969 78.15625 100.832031 78.539062 100.808594 Z M 80.878906 100.589844 C 81.253906 100.542969 81.523438 100.199219 81.476562 99.824219 C 81.429688 99.445312 81.085938 99.179688 80.707031 99.226562 C 80.328125 99.269531 80.0625 99.617188 80.109375 99.992188 C 80.152344 100.371094 80.5 100.636719 80.878906 100.589844 Z M 83.199219 100.230469 C 83.574219 100.15625 83.820312 99.796875 83.75 99.425781 C 83.675781 99.050781 83.316406 98.804688 82.941406 98.875 C 82.570312 98.945312 82.324219 99.304688 82.394531 99.679688 C 82.464844 100.054688 82.824219 100.300781 83.199219 100.230469 Z M 85.496094 99.71875 C 85.863281 99.625 86.085938 99.25 85.992188 98.882812 C 85.898438 98.511719 85.523438 98.289062 85.152344 98.386719 C 84.785156 98.480469 84.5625 98.855469 84.65625 99.222656 C 84.75 99.589844 85.125 99.816406 85.496094 99.71875 Z M 87.753906 99.066406 C 88.113281 98.949219 88.3125 98.5625 88.195312 98.199219 C 88.078125 97.835938 87.6875 97.640625 87.328125 97.757812 C 86.964844 97.875 86.765625 98.261719 86.882812 98.625 C 87 98.984375 87.390625 99.183594 87.753906 99.066406 Z M 89.96875 98.269531 C 90.320312 98.128906 90.496094 97.730469 90.355469 97.378906 C 90.214844 97.023438 89.8125 96.851562 89.460938 96.988281 C 89.105469 97.128906 88.933594 97.53125 89.070312 97.882812 C 89.210938 98.238281 89.613281 98.410156 89.964844 98.269531 Z M 92.128906 97.335938 C 92.472656 97.175781 92.617188 96.765625 92.457031 96.417969 C 92.296875 96.074219 91.882812 95.929688 91.539062 96.089844 C 91.195312 96.253906 91.046875 96.664062 91.210938 97.007812 C 91.371094 97.351562 91.785156 97.5 92.128906 97.335938 Z M 94.222656 96.269531 C 94.554688 96.085938 94.679688 95.667969 94.496094 95.332031 C 94.308594 95 93.890625 94.878906 93.558594 95.0625 C 93.222656 95.246094 93.105469 95.664062 93.285156 96 C 93.46875 96.332031 93.890625 96.453125 94.222656 96.269531 Z M 96.246094 95.074219 C 96.570312 94.867188 96.664062 94.441406 96.460938 94.121094 C 96.253906 93.800781 95.828125 93.703125 95.507812 93.910156 C 95.1875 94.113281 95.089844 94.539062 95.296875 94.859375 C 95.5 95.179688 95.925781 95.277344 96.246094 95.074219 Z M 98.191406 93.75 C 98.5 93.527344 98.566406 93.097656 98.34375 92.789062 C 98.121094 92.480469 97.6875 92.414062 97.382812 92.636719 C 97.074219 92.859375 97.003906 93.292969 97.226562 93.597656 C 97.453125 93.90625 97.882812 93.976562 98.191406 93.75 Z M 100.050781 92.3125 C 100.34375 92.070312 100.382812 91.632812 100.140625 91.34375 C 99.898438 91.046875 99.464844 91.007812 99.167969 91.25 L 99.171875 91.25 C 98.878906 91.492188 98.835938 91.925781 99.078125 92.21875 C 99.320312 92.511719 99.753906 92.554688 100.050781 92.3125 Z M 101.8125 90.757812 C 102.089844 90.5 102.105469 90.0625 101.84375 89.789062 C 101.585938 89.507812 101.148438 89.496094 100.871094 89.753906 C 100.59375 90.015625 100.578125 90.449219 100.839844 90.730469 C 101.097656 91.007812 101.535156 91.019531 101.8125 90.757812 Z M 103.476562 89.101562 C 103.738281 88.824219 103.726562 88.386719 103.449219 88.128906 C 103.171875 87.867188 102.734375 87.878906 102.472656 88.15625 C 102.210938 88.433594 102.222656 88.871094 102.503906 89.128906 C 102.777344 89.390625 103.214844 89.378906 103.476562 89.101562 Z M 105.035156 87.34375 C 105.277344 87.050781 105.234375 86.617188 104.941406 86.375 C 104.652344 86.128906 104.214844 86.171875 103.972656 86.464844 C 103.730469 86.757812 103.769531 87.191406 104.0625 87.433594 C 104.355469 87.675781 104.789062 87.636719 105.03125 87.34375 Z M 106.480469 85.492188 C 106.703125 85.183594 106.636719 84.753906 106.328125 84.53125 C 106.019531 84.304688 105.585938 84.375 105.363281 84.679688 C 105.140625 84.988281 105.207031 85.417969 105.515625 85.640625 C 105.820312 85.867188 106.253906 85.800781 106.480469 85.492188 Z M 107.800781 83.554688 C 108.007812 83.234375 107.914062 82.808594 107.59375 82.605469 C 107.273438 82.398438 106.84375 82.496094 106.640625 82.8125 C 106.433594 83.136719 106.527344 83.5625 106.851562 83.765625 C 107.171875 83.96875 107.597656 83.875 107.800781 83.554688 Z M 109.003906 81.539062 C 109.1875 81.207031 109.066406 80.789062 108.734375 80.605469 C 108.402344 80.417969 107.980469 80.539062 107.796875 80.875 C 107.613281 81.207031 107.734375 81.625 108.066406 81.808594 C 108.398438 81.996094 108.820312 81.871094 109.003906 81.539062 Z M 110.074219 79.453125 C 110.238281 79.109375 110.089844 78.699219 109.75 78.535156 C 109.402344 78.371094 108.992188 78.519531 108.828125 78.863281 C 108.664062 79.207031 108.8125 79.617188 109.15625 79.78125 C 109.5 79.945312 109.914062 79.796875 110.074219 79.453125 Z M 111.011719 77.304688 C 111.15625 76.953125 110.980469 76.550781 110.628906 76.410156 C 110.273438 76.269531 109.875 76.441406 109.734375 76.792969 C 109.59375 77.148438 109.765625 77.546875 110.117188 77.691406 C 110.46875 77.828125 110.871094 77.65625 111.011719 77.304688 Z M 111.816406 75.097656 C 111.933594 74.734375 111.738281 74.347656 111.375 74.226562 C 111.011719 74.109375 110.625 74.308594 110.503906 74.667969 C 110.386719 75.03125 110.582031 75.421875 110.945312 75.539062 C 111.308594 75.65625 111.695312 75.460938 111.816406 75.097656 Z M 112.476562 72.84375 C 112.570312 72.476562 112.347656 72.101562 111.980469 72.007812 C 111.609375 71.910156 111.234375 72.132812 111.136719 72.5 L 111.140625 72.5 C 111.042969 72.867188 111.265625 73.242188 111.632812 73.339844 C 112.003906 73.433594 112.378906 73.214844 112.476562 72.84375 Z M 112.988281 70.554688 C 113.0625 70.179688 112.816406 69.820312 112.445312 69.746094 C 112.070312 69.675781 111.707031 69.921875 111.636719 70.292969 C 111.5625 70.667969 111.808594 71.027344 112.183594 71.101562 C 112.558594 71.171875 112.917969 70.929688 112.988281 70.554688 Z M 113.359375 68.234375 C 113.410156 67.859375 113.140625 67.511719 112.765625 67.464844 C 112.386719 67.417969 112.039062 67.683594 111.992188 68.0625 C 111.945312 68.441406 112.210938 68.785156 112.589844 68.832031 C 112.964844 68.878906 113.3125 68.613281 113.359375 68.234375 Z M 113.585938 65.902344 C 113.609375 65.519531 113.320312 65.191406 112.941406 65.167969 C 112.558594 65.144531 112.230469 65.433594 112.207031 65.8125 C 112.183594 66.191406 112.472656 66.519531 112.851562 66.542969 C 113.230469 66.566406 113.558594 66.277344 113.582031 65.902344 Z M 113.660156 63.554688 C 113.660156 63.171875 113.351562 62.863281 112.972656 62.863281 C 112.589844 62.863281 112.28125 63.171875 112.28125 63.550781 C 112.28125 63.929688 112.585938 64.238281 112.96875 64.242188 C 113.351562 64.242188 113.660156 63.933594 113.660156 63.554688 Z M 113.589844 61.207031 C 113.566406 60.828125 113.242188 60.539062 112.859375 60.5625 C 112.480469 60.585938 112.191406 60.910156 112.214844 61.292969 C 112.238281 61.671875 112.566406 61.960938 112.945312 61.9375 C 113.324219 61.914062 113.613281 61.585938 113.589844 61.207031 Z M 113.375 58.871094 C 113.328125 58.492188 112.984375 58.226562 112.605469 58.273438 C 112.230469 58.320312 111.960938 58.664062 112.007812 59.039062 C 112.050781 59.417969 112.398438 59.6875 112.777344 59.640625 C 113.152344 59.59375 113.421875 59.25 113.375 58.871094 Z M 113.011719 56.550781 C 112.941406 56.179688 112.582031 55.933594 112.207031 56.003906 C 111.832031 56.074219 111.585938 56.433594 111.65625 56.808594 C 111.726562 57.179688 112.089844 57.425781 112.464844 57.355469 C 112.835938 57.285156 113.082031 56.925781 113.011719 56.550781 Z M 112.503906 54.261719 C 112.410156 53.890625 112.035156 53.667969 111.667969 53.761719 C 111.296875 53.855469 111.074219 54.230469 111.167969 54.597656 C 111.261719 54.96875 111.636719 55.191406 112.007812 55.097656 C 112.375 55.003906 112.597656 54.628906 112.503906 54.261719 Z M 111.851562 52.003906 C 111.734375 51.640625 111.34375 51.441406 110.984375 51.5625 C 110.621094 51.679688 110.421875 52.066406 110.539062 52.429688 C 110.65625 52.789062 111.046875 52.988281 111.40625 52.871094 C 111.769531 52.753906 111.96875 52.367188 111.851562 52.003906 Z M 111.054688 49.789062 C 110.914062 49.4375 110.515625 49.261719 110.160156 49.402344 C 109.808594 49.542969 109.632812 49.945312 109.773438 50.296875 C 109.914062 50.652344 110.3125 50.824219 110.667969 50.683594 C 111.023438 50.542969 111.195312 50.144531 111.054688 49.789062 Z M 110.121094 47.632812 C 109.960938 47.289062 109.550781 47.140625 109.203125 47.304688 C 108.859375 47.464844 108.710938 47.875 108.875 48.21875 C 109.035156 48.5625 109.445312 48.710938 109.792969 48.550781 C 110.136719 48.386719 110.285156 47.976562 110.121094 47.632812 Z M 109.054688 45.539062 C 108.871094 45.207031 108.453125 45.085938 108.117188 45.269531 C 107.785156 45.449219 107.660156 45.871094 107.84375 46.203125 C 108.027344 46.535156 108.449219 46.65625 108.78125 46.476562 C 109.117188 46.292969 109.238281 45.871094 109.054688 45.539062 Z M 107.855469 43.515625 C 107.652344 43.195312 107.226562 43.101562 106.902344 43.304688 C 106.582031 43.507812 106.488281 43.933594 106.691406 44.257812 C 106.898438 44.574219 107.324219 44.671875 107.644531 44.46875 C 107.964844 44.261719 108.0625 43.839844 107.855469 43.515625 Z M 106.535156 41.574219 C 106.3125 41.265625 105.878906 41.199219 105.570312 41.421875 C 105.265625 41.644531 105.195312 42.078125 105.417969 42.382812 C 105.640625 42.691406 106.074219 42.761719 106.382812 42.535156 C 106.691406 42.3125 106.757812 41.882812 106.535156 41.574219 Z M 105.097656 39.71875 C 104.851562 39.425781 104.417969 39.382812 104.125 39.625 C 103.828125 39.867188 103.789062 40.304688 104.03125 40.59375 C 104.273438 40.890625 104.707031 40.929688 105.003906 40.6875 C 105.296875 40.445312 105.335938 40.011719 105.09375 39.71875 Z M 103.542969 37.957031 C 103.28125 37.675781 102.847656 37.664062 102.566406 37.925781 C 102.289062 38.183594 102.273438 38.617188 102.535156 38.898438 C 102.796875 39.175781 103.230469 39.1875 103.511719 38.929688 C 103.789062 38.667969 103.804688 38.234375 103.542969 37.957031 Z M 101.882812 36.292969 C 101.605469 36.03125 101.167969 36.046875 100.90625 36.320312 C 100.644531 36.597656 100.660156 37.035156 100.9375 37.296875 C 101.214844 37.558594 101.648438 37.542969 101.910156 37.265625 C 102.171875 36.992188 102.160156 36.554688 101.882812 36.292969 Z M 100.125 34.738281 C 99.832031 34.492188 99.394531 34.535156 99.152344 34.828125 C 98.910156 35.121094 98.949219 35.554688 99.242188 35.796875 C 99.535156 36.039062 99.96875 36 100.214844 35.707031 C 100.457031 35.414062 100.417969 34.980469 100.125 34.738281 Z M 98.273438 33.296875 C 97.964844 33.070312 97.53125 33.136719 97.308594 33.445312 C 97.082031 33.75 97.148438 34.183594 97.457031 34.40625 C 97.761719 34.632812 98.195312 34.5625 98.421875 34.257812 C 98.644531 33.949219 98.578125 33.519531 98.269531 33.296875 Z M 96.332031 31.96875 C 96.011719 31.765625 95.585938 31.859375 95.378906 32.179688 C 95.175781 32.5 95.269531 32.925781 95.589844 33.128906 C 95.910156 33.335938 96.335938 33.242188 96.542969 32.921875 C 96.746094 32.601562 96.652344 32.175781 96.332031 31.96875 Z M 94.316406 30.769531 C 93.980469 30.585938 93.5625 30.707031 93.375 31.039062 C 93.195312 31.371094 93.3125 31.789062 93.644531 31.972656 C 93.980469 32.160156 94.398438 32.039062 94.582031 31.707031 C 94.769531 31.371094 94.648438 30.953125 94.316406 30.769531 Z M 92.226562 29.699219 C 91.882812 29.535156 91.472656 29.683594 91.308594 30.023438 C 91.144531 30.367188 91.292969 30.78125 91.632812 30.941406 C 91.980469 31.105469 92.390625 30.957031 92.554688 30.617188 C 92.71875 30.273438 92.570312 29.859375 92.226562 29.699219 Z M 90.074219 28.761719 C 89.722656 28.617188 89.320312 28.789062 89.179688 29.144531 C 89.039062 29.496094 89.210938 29.898438 89.5625 30.039062 C 89.917969 30.179688 90.316406 30.007812 90.460938 29.65625 C 90.601562 29.300781 90.429688 28.902344 90.074219 28.761719 Z M 87.867188 27.957031 C 87.503906 27.839844 87.113281 28.035156 86.996094 28.398438 C 86.878906 28.761719 87.074219 29.148438 87.4375 29.265625 C 87.800781 29.386719 88.1875 29.1875 88.308594 28.828125 C 88.425781 28.464844 88.226562 28.078125 87.867188 27.957031 Z M 85.609375 27.296875 C 85.242188 27.203125 84.863281 27.421875 84.769531 27.792969 C 84.675781 28.160156 84.894531 28.535156 85.265625 28.628906 C 85.632812 28.726562 86.007812 28.503906 86.105469 28.136719 C 86.199219 27.769531 85.980469 27.394531 85.609375 27.296875 Z M 83.316406 26.78125 C 82.941406 26.710938 82.582031 26.953125 82.511719 27.328125 C 82.4375 27.703125 82.683594 28.0625 83.054688 28.132812 C 83.429688 28.207031 83.792969 27.960938 83.863281 27.589844 C 83.9375 27.214844 83.691406 26.851562 83.320312 26.78125 Z M 80.996094 26.410156 C 80.621094 26.363281 80.273438 26.628906 80.222656 27.007812 C 80.175781 27.382812 80.441406 27.726562 80.820312 27.777344 C 81.199219 27.824219 81.542969 27.558594 81.59375 27.179688 C 81.640625 26.804688 81.375 26.457031 80.996094 26.410156 Z M 78.660156 26.1875 C 78.277344 26.164062 77.949219 26.449219 77.925781 26.828125 C 77.902344 27.210938 78.1875 27.535156 78.570312 27.5625 C 78.949219 27.585938 79.277344 27.296875 79.300781 26.917969 C 79.324219 26.539062 79.039062 26.210938 78.65625 26.1875 Z M 76.308594 26.109375 C 75.925781 26.109375 75.617188 26.414062 75.617188 26.796875 C 75.617188 27.175781 75.925781 27.488281 76.304688 27.488281 C 76.6875 27.488281 76.996094 27.179688 76.996094 26.800781 C 76.996094 26.417969 76.6875 26.109375 76.308594 26.109375 Z M 76.230469 26.109375 C 75.847656 26.109375 75.539062 26.417969 75.539062 26.796875 C 75.539062 27.179688 75.847656 27.488281 76.230469 27.488281 C 76.609375 27.488281 76.921875 27.179688 76.921875 26.796875 C 76.921875 26.417969 76.609375 26.109375 76.230469 26.109375 " fill-opacity="1" fill-rule="nonzero"/></g><path fill="#ffffff" d="M 76.230469 79.21875 C 67.535156 79.21875 60.484375 72.179688 60.484375 63.496094 C 60.484375 54.8125 67.535156 47.769531 76.230469 47.769531 C 84.921875 47.769531 91.972656 54.8125 91.972656 63.496094 C 91.972656 72.179688 84.921875 79.21875 76.230469 79.21875 Z M 76.230469 41.941406 C 64.3125 41.941406 54.648438 51.589844 54.648438 63.496094 C 54.648438 75.398438 64.3125 85.046875 76.230469 85.046875 C 88.148438 85.046875 97.808594 75.398438 97.808594 63.496094 C 97.808594 51.589844 88.148438 41.941406 76.230469 41.941406 " fill-opacity="1" fill-rule="nonzero"/><path fill="#ffffff" d="M 76.230469 68.703125 C 73.347656 68.703125 71.011719 66.371094 71.011719 63.496094 C 71.011719 60.617188 73.347656 58.285156 76.230469 58.285156 C 79.105469 58.285156 81.445312 60.617188 81.445312 63.496094 C 81.445312 66.371094 79.105469 68.703125 76.230469 68.703125 " fill-opacity="1" fill-rule="nonzero"/><path fill="#ffffff" d="M 30.25 41.105469 C 30.25 43.039062 28.679688 44.605469 26.742188 44.605469 L 19.539062 44.605469 C 17.601562 44.605469 16.035156 43.039062 16.035156 41.105469 L 16.035156 33.910156 C 16.035156 31.976562 17.601562 30.40625 19.539062 30.40625 L 26.742188 30.40625 C 28.679688 30.40625 30.25 31.976562 30.25 33.910156 L 30.25 41.105469 " fill-opacity="1" fill-rule="nonzero"/><path fill="#ffffff" d="M 91.472656 19.011719 C 91.472656 19.960938 90.699219 20.734375 89.746094 20.734375 L 60.128906 20.734375 C 59.175781 20.734375 58.40625 19.960938 58.40625 19.011719 C 58.40625 18.058594 59.175781 17.285156 60.128906 17.285156 L 89.746094 17.285156 C 90.699219 17.285156 91.472656 18.058594 91.472656 19.011719 " fill-opacity="1" fill-rule="nonzero"/></svg>